<svg xmlns="http://www.w3.org/2000/svg" width="920" height="540">
<rect width="100%" height="100%" fill="white"/>
<text x="460.0" y="35" text-anchor="middle" font-size="22" font-family="Arial">Mean Accuracy vs NumTrainingSamples</text>
<line x1="90" y1="70" x2="90" y2="445" stroke="black"/>
<line x1="90" y1="445" x2="880" y2="445" stroke="black"/>
<line x1="85" y1="445.0" x2="90" y2="445.0" stroke="black"/>
<text x="80" y="449.0" text-anchor="end" font-size="12" font-family="Arial">0.00</text>
<line x1="85" y1="370.0" x2="90" y2="370.0" stroke="black"/>
<text x="80" y="374.0" text-anchor="end" font-size="12" font-family="Arial">0.20</text>
<line x1="90" y1="370.0" x2="880" y2="370.0" stroke="#dddddd" stroke-dasharray="3,3"/>
<line x1="85" y1="295.0" x2="90" y2="295.0" stroke="black"/>
<text x="80" y="299.0" text-anchor="end" font-size="12" font-family="Arial">0.40</text>
<line x1="90" y1="295.0" x2="880" y2="295.0" stroke="#dddddd" stroke-dasharray="3,3"/>
<line x1="85" y1="220.0" x2="90" y2="220.0" stroke="black"/>
<text x="80" y="224.0" text-anchor="end" font-size="12" font-family="Arial">0.60</text>
<line x1="90" y1="220.0" x2="880" y2="220.0" stroke="#dddddd" stroke-dasharray="3,3"/>
<line x1="85" y1="145.0" x2="90" y2="145.0" stroke="black"/>
<text x="80" y="149.0" text-anchor="end" font-size="12" font-family="Arial">0.80</text>
<line x1="90" y1="145.0" x2="880" y2="145.0" stroke="#dddddd" stroke-dasharray="3,3"/>
<line x1="85" y1="70.0" x2="90" y2="70.0" stroke="black"/>
<text x="80" y="74.0" text-anchor="end" font-size="12" font-family="Arial">1.00</text>
<line x1="90" y1="70.0" x2="880" y2="70.0" stroke="#dddddd" stroke-dasharray="3,3"/>
<line x1="90.0" y1="445" x2="90.0" y2="450" stroke="black"/>
<text x="90.0" y="467" text-anchor="middle" font-size="11" font-family="Arial">3</text>
<line x1="91.85591229444009" y1="445" x2="91.85591229444009" y2="450" stroke="black"/>
<text x="91.85591229444009" y="467" text-anchor="middle" font-size="11" font-family="Arial">6</text>
<line x1="95.56773688332028" y1="445" x2="95.56773688332028" y2="450" stroke="black"/>
<text x="95.56773688332028" y="467" text-anchor="middle" font-size="11" font-family="Arial">12</text>
<line x1="102.99138606108066" y1="445" x2="102.99138606108066" y2="450" stroke="black"/>
<text x="102.99138606108066" y="467" text-anchor="middle" font-size="11" font-family="Arial">24</text>
<line x1="117.83868441660141" y1="445" x2="117.83868441660141" y2="450" stroke="black"/>
<text x="117.83868441660141" y="467" text-anchor="middle" font-size="11" font-family="Arial">48</text>
<line x1="147.5332811276429" y1="445" x2="147.5332811276429" y2="450" stroke="black"/>
<text x="147.5332811276429" y="467" text-anchor="middle" font-size="11" font-family="Arial">96</text>
<line x1="206.9224745497259" y1="445" x2="206.9224745497259" y2="450" stroke="black"/>
<text x="206.9224745497259" y="467" text-anchor="middle" font-size="11" font-family="Arial">192</text>
<line x1="325.70086139389196" y1="445" x2="325.70086139389196" y2="450" stroke="black"/>
<text x="325.70086139389196" y="467" text-anchor="middle" font-size="11" font-family="Arial">384</text>
<line x1="563.2576350822239" y1="445" x2="563.2576350822239" y2="450" stroke="black"/>
<text x="563.2576350822239" y="467" text-anchor="middle" font-size="11" font-family="Arial">768</text>
<line x1="880.0" y1="445" x2="880.0" y2="450" stroke="black"/>
<text x="880.0" y="467" text-anchor="middle" font-size="11" font-family="Arial">1280</text>
<polyline fill="none" stroke="#E15759" stroke-width="3" points="90.0,413.42105263157896 91.85591229444009,423.44827586206895 95.56773688332028,426.7073170731707 102.99138606108066,440.12987012987014 117.83868441660141,425.0 147.5332811276429,355.2112676056338 206.9224745497259,368.6111111111111 325.70086139389196,328.92857142857144 563.2576350822239,367.41379310344826 880.0,379.7826086956522"/>
<circle cx="90.0" cy="413.42105263157896" r="4" fill="#E15759"/>
<circle cx="91.85591229444009" cy="423.44827586206895" r="4" fill="#E15759"/>
<circle cx="95.56773688332028" cy="426.7073170731707" r="4" fill="#E15759"/>
<circle cx="102.99138606108066" cy="440.12987012987014" r="4" fill="#E15759"/>
<circle cx="117.83868441660141" cy="425.0" r="4" fill="#E15759"/>
<circle cx="147.5332811276429" cy="355.2112676056338" r="4" fill="#E15759"/>
<circle cx="206.9224745497259" cy="368.6111111111111" r="4" fill="#E15759"/>
<circle cx="325.70086139389196" cy="328.92857142857144" r="4" fill="#E15759"/>
<circle cx="563.2576350822239" cy="367.41379310344826" r="4" fill="#E15759"/>
<circle cx="880.0" cy="379.7826086956522" r="4" fill="#E15759"/>
<text x="30" y="257.5" transform="rotate(-90 30 257.5)" text-anchor="middle" font-size="13" font-family="Arial">Mean Accuracy</text>
<text x="485.0" y="505" text-anchor="middle" font-size="13" font-family="Arial">NumTrainingSamples</text>
</svg>