<svg xmlns="http://www.w3.org/2000/svg" width="640" height="400" viewBox="0 0 640 400"><rect width="100%" height="100%" fill="white"/><text x="320.0" y="24" text-anchor="middle" font-size="18" font-family="Arial">Learning Curve Mean Accuracy</text><line x1="60" y1="345" x2="620" y2="345" stroke="black"/><line x1="60" y1="40" x2="60" y2="345" stroke="black"/><text x="320.0" y="388" text-anchor="middle" font-size="13" font-family="Arial">Epoch</text><text x="18" y="200.0" text-anchor="middle" font-size="13" font-family="Arial" transform="rotate(-90 18 200.0)">Mean Accuracy</text><line x1="60" y1="345.0" x2="620" y2="345.0" stroke="#dddddd"/><text x="52" y="349.0" text-anchor="end" font-size="11" font-family="Arial">0.0</text><line x1="60" y1="284.0" x2="620" y2="284.0" stroke="#dddddd"/><text x="52" y="288.0" text-anchor="end" font-size="11" font-family="Arial">0.2</text><line x1="60" y1="223.0" x2="620" y2="223.0" stroke="#dddddd"/><text x="52" y="227.0" text-anchor="end" font-size="11" font-family="Arial">0.4</text><line x1="60" y1="162.0" x2="620" y2="162.0" stroke="#dddddd"/><text x="52" y="166.0" text-anchor="end" font-size="11" font-family="Arial">0.6</text><line x1="60" y1="101.0" x2="620" y2="101.0" stroke="#dddddd"/><text x="52" y="105.0" text-anchor="end" font-size="11" font-family="Arial">0.8</text><line x1="60" y1="40.0" x2="620" y2="40.0" stroke="#dddddd"/><text x="52" y="44.0" text-anchor="end" font-size="11" font-family="Arial">1.0</text><polyline fill="none" stroke="#c1121f" stroke-width="2.5" points="60.0,301.4 110.9,300.9 161.8,285.6 212.7,290.9 263.6,255.3 314.5,277.2 365.5,334.1 416.4,311.1 467.3,306.9 518.2,330.5 569.1,329.8 620.0,345.0"/><circle cx="60.0" cy="301.4" r="4" fill="#c1121f"/><text x="60.0" y="293.4" text-anchor="middle" font-size="11" font-family="Arial">0.14</text><text x="60.0" y="363" text-anchor="middle" font-size="12" font-family="Arial">1</text><circle cx="110.9" cy="300.9" r="4" fill="#c1121f"/><text x="110.9" y="292.9" text-anchor="middle" font-size="11" font-family="Arial">0.14</text><text x="110.9" y="363" text-anchor="middle" font-size="12" font-family="Arial">2</text><circle cx="161.8" cy="285.6" r="4" fill="#c1121f"/><text x="161.8" y="277.6" text-anchor="middle" font-size="11" font-family="Arial">0.19</text><text x="161.8" y="363" text-anchor="middle" font-size="12" font-family="Arial">3</text><circle cx="212.7" cy="290.9" r="4" fill="#c1121f"/><text x="212.7" y="282.9" text-anchor="middle" font-size="11" font-family="Arial">0.18</text><text x="212.7" y="363" text-anchor="middle" font-size="12" font-family="Arial">4</text><circle cx="263.6" cy="255.3" r="4" fill="#c1121f"/><text x="263.6" y="247.3" text-anchor="middle" font-size="11" font-family="Arial">0.29</text><text x="263.6" y="363" text-anchor="middle" font-size="12" font-family="Arial">5</text><circle cx="314.5" cy="277.2" r="4" fill="#c1121f"/><text x="314.5" y="269.2" text-anchor="middle" font-size="11" font-family="Arial">0.22</text><text x="314.5" y="363" text-anchor="middle" font-size="12" font-family="Arial">6</text><circle cx="365.5" cy="334.1" r="4" fill="#c1121f"/><text x="365.5" y="326.1" text-anchor="middle" font-size="11" font-family="Arial">0.04</text><text x="365.5" y="363" text-anchor="middle" font-size="12" font-family="Arial">7</text><circle cx="416.4" cy="311.1" r="4" fill="#c1121f"/><text x="416.4" y="303.1" text-anchor="middle" font-size="11" font-family="Arial">0.11</text><text x="416.4" y="363" text-anchor="middle" font-size="12" font-family="Arial">8</text><circle cx="467.3" cy="306.9" r="4" fill="#c1121f"/><text x="467.3" y="298.9" text-anchor="middle" font-size="11" font-family="Arial">0.12</text><text x="467.3" y="363" text-anchor="middle" font-size="12" font-family="Arial">9</text><circle cx="518.2" cy="330.5" r="4" fill="#c1121f"/><text x="518.2" y="322.5" text-anchor="middle" font-size="11" font-family="Arial">0.05</text><text x="518.2" y="363" text-anchor="middle" font-size="12" font-family="Arial">10</text><circle cx="569.1" cy="329.8" r="4" fill="#c1121f"/><text x="569.1" y="321.8" text-anchor="middle" font-size="11" font-family="Arial">0.05</text><text x="569.1" y="363" text-anchor="middle" font-size="12" font-family="Arial">11</text><circle cx="620.0" cy="345.0" r="4" fill="#c1121f"/><text x="620.0" y="337.0" text-anchor="middle" font-size="11" font-family="Arial">0.00</text><text x="620.0" y="363" text-anchor="middle" font-size="12" font-family="Arial">12</text></svg>