<svg xmlns="http://www.w3.org/2000/svg" width="640" height="400" viewBox="0 0 640 400"><rect width="100%" height="100%" fill="white"/><text x="320.0" y="24" text-anchor="middle" font-size="18" font-family="Arial">Solve Rate by Stardepth</text><line x1="60" y1="345" x2="620" y2="345" stroke="black"/><line x1="60" y1="40" x2="60" y2="345" stroke="black"/><text x="320.0" y="388" text-anchor="middle" font-size="13" font-family="Arial">StarDepth</text><text x="18" y="200.0" text-anchor="middle" font-size="13" font-family="Arial" transform="rotate(-90 18 200.0)">Mean Solve Rate</text><line x1="60" y1="345.0" x2="620" y2="345.0" stroke="#dddddd"/><text x="52" y="349.0" text-anchor="end" font-size="11" font-family="Arial">0.0</text><line x1="60" y1="284.0" x2="620" y2="284.0" stroke="#dddddd"/><text x="52" y="288.0" text-anchor="end" font-size="11" font-family="Arial">0.2</text><line x1="60" y1="223.0" x2="620" y2="223.0" stroke="#dddddd"/><text x="52" y="227.0" text-anchor="end" font-size="11" font-family="Arial">0.4</text><line x1="60" y1="162.0" x2="620" y2="162.0" stroke="#dddddd"/><text x="52" y="166.0" text-anchor="end" font-size="11" font-family="Arial">0.6</text><line x1="60" y1="101.0" x2="620" y2="101.0" stroke="#dddddd"/><text x="52" y="105.0" text-anchor="end" font-size="11" font-family="Arial">0.8</text><line x1="60" y1="40.0" x2="620" y2="40.0" stroke="#dddddd"/><text x="52" y="44.0" text-anchor="end" font-size="11" font-family="Arial">1.0</text><rect x="82.4" y="40.0" width="67.2" height="305.0" fill="#8b5e34"/><text x="116.0" y="363" text-anchor="middle" font-size="12" font-family="Arial">0</text><text x="116.0" y="34.0" text-anchor="middle" font-size="11" font-family="Arial">1.00</text><rect x="194.4" y="40.0" width="67.2" height="305.0" fill="#8b5e34"/><text x="228.0" y="363" text-anchor="middle" font-size="12" font-family="Arial">1</text><text x="228.0" y="34.0" text-anchor="middle" font-size="11" font-family="Arial">1.00</text><rect x="306.4" y="83.6" width="67.2" height="261.4" fill="#8b5e34"/><text x="340.0" y="363" text-anchor="middle" font-size="12" font-family="Arial">2</text><text x="340.0" y="77.6" text-anchor="middle" font-size="11" font-family="Arial">0.86</text><rect x="418.4" y="112.6" width="67.2" height="232.4" fill="#8b5e34"/><text x="452.0" y="363" text-anchor="middle" font-size="12" font-family="Arial">3</text><text x="452.0" y="106.6" text-anchor="middle" font-size="11" font-family="Arial">0.76</text><rect x="530.4" y="199.8" width="67.2" height="145.2" fill="#8b5e34"/><text x="564.0" y="363" text-anchor="middle" font-size="12" font-family="Arial">4</text><text x="564.0" y="193.8" text-anchor="middle" font-size="11" font-family="Arial">0.48</text></svg>