<svg xmlns="http://www.w3.org/2000/svg" width="900" height="520">
<rect width="100%" height="100%" fill="white"/>
<text x="450.0" y="35" text-anchor="middle" font-size="22" font-family="Arial">Mean Solve Rate by #States</text>
<line x1="80" y1="70" x2="80" y2="430" stroke="black"/>
<line x1="80" y1="430" x2="860" y2="430" stroke="black"/>
<line x1="75" y1="430.0" x2="80" y2="430.0" stroke="black"/>
<text x="70" y="434.0" text-anchor="end" font-size="12" font-family="Arial">0.00</text>
<line x1="75" y1="358.0" x2="80" y2="358.0" stroke="black"/>
<text x="70" y="362.0" text-anchor="end" font-size="12" font-family="Arial">0.20</text>
<line x1="80" y1="358.0" x2="860" y2="358.0" stroke="#dddddd" stroke-dasharray="3,3"/>
<line x1="75" y1="286.0" x2="80" y2="286.0" stroke="black"/>
<text x="70" y="290.0" text-anchor="end" font-size="12" font-family="Arial">0.40</text>
<line x1="80" y1="286.0" x2="860" y2="286.0" stroke="#dddddd" stroke-dasharray="3,3"/>
<line x1="75" y1="214.0" x2="80" y2="214.0" stroke="black"/>
<text x="70" y="218.0" text-anchor="end" font-size="12" font-family="Arial">0.60</text>
<line x1="80" y1="214.0" x2="860" y2="214.0" stroke="#dddddd" stroke-dasharray="3,3"/>
<line x1="75" y1="142.0" x2="80" y2="142.0" stroke="black"/>
<text x="70" y="146.0" text-anchor="end" font-size="12" font-family="Arial">0.80</text>
<line x1="80" y1="142.0" x2="860" y2="142.0" stroke="#dddddd" stroke-dasharray="3,3"/>
<line x1="75" y1="70.0" x2="80" y2="70.0" stroke="black"/>
<text x="70" y="74.0" text-anchor="end" font-size="12" font-family="Arial">1.00</text>
<line x1="80" y1="70.0" x2="860" y2="70.0" stroke="#dddddd" stroke-dasharray="3,3"/>
<rect x="88.91428571428571" y="70.0" width="101.24081632653062" height="360.0" fill="#4E79A7"/>
<text x="139.53469387755104" y="450" text-anchor="middle" font-size="12" font-family="Arial">3</text>
<text x="139.53469387755104" y="64.0" text-anchor="middle" font-size="11" font-family="Arial">1.00</text>
<rect x="199.06938775510204" y="214.0" width="101.24081632653062" height="216.0" fill="#4E79A7"/>
<text x="249.68979591836734" y="450" text-anchor="middle" font-size="12" font-family="Arial">4</text>
<text x="249.68979591836734" y="208.0" text-anchor="middle" font-size="11" font-family="Arial">0.60</text>
<rect x="309.2244897959184" y="94.0" width="101.24081632653062" height="336.0" fill="#4E79A7"/>
<text x="359.8448979591837" y="450" text-anchor="middle" font-size="12" font-family="Arial">5</text>
<text x="359.8448979591837" y="88.0" text-anchor="middle" font-size="11" font-family="Arial">0.93</text>
<rect x="419.3795918367347" y="142.0" width="101.24081632653062" height="288.0" fill="#4E79A7"/>
<text x="470.0" y="450" text-anchor="middle" font-size="12" font-family="Arial">6</text>
<text x="470.0" y="136.0" text-anchor="middle" font-size="11" font-family="Arial">0.80</text>
<rect x="529.534693877551" y="262.0" width="101.24081632653062" height="168.0" fill="#4E79A7"/>
<text x="580.1551020408164" y="450" text-anchor="middle" font-size="12" font-family="Arial">7</text>
<text x="580.1551020408164" y="256.0" text-anchor="middle" font-size="11" font-family="Arial">0.47</text>
<rect x="639.6897959183674" y="262.0" width="101.24081632653062" height="167.99999999999997" fill="#4E79A7"/>
<text x="690.3102040816327" y="450" text-anchor="middle" font-size="12" font-family="Arial">8</text>
<text x="690.3102040816327" y="256.0" text-anchor="middle" font-size="11" font-family="Arial">0.47</text>
<rect x="749.8448979591836" y="214.0" width="101.24081632653062" height="216.0" fill="#4E79A7"/>
<text x="800.465306122449" y="450" text-anchor="middle" font-size="12" font-family="Arial">9</text>
<text x="800.465306122449" y="208.0" text-anchor="middle" font-size="11" font-family="Arial">0.60</text>
<text x="25" y="250.0" transform="rotate(-90 25 250.0)" text-anchor="middle" font-size="13" font-family="Arial">Mean Solve Rate</text>
<text x="470.0" y="490" text-anchor="middle" font-size="13" font-family="Arial">Group</text>
</svg>