<svg xmlns="http://www.w3.org/2000/svg" width="900" height="560">
<rect width="100%" height="100%" fill="white"/>
<text x="450.0" y="35" text-anchor="middle" font-size="22" font-family="Arial">Solve Rate Heatmap (#States x Stardepth)</text>
<text x="105" y="111.85714285714286" text-anchor="end" font-size="12" font-family="Arial">3</text>
<rect x="120.0" y="80.0" width="148.0" height="55.714285714285715" fill="rgb(33,84,143)" stroke="white"/>
<text x="194.0" y="111.85714285714286" text-anchor="middle" font-size="12" fill="white" font-family="Arial">1.00</text>
<rect x="268.0" y="80.0" width="148.0" height="55.714285714285715" fill="rgb(33,84,143)" stroke="white"/>
<text x="342.0" y="111.85714285714286" text-anchor="middle" font-size="12" fill="white" font-family="Arial">1.00</text>
<rect x="416.0" y="80.0" width="148.0" height="55.714285714285715" fill="rgb(33,84,143)" stroke="white"/>
<text x="490.0" y="111.85714285714286" text-anchor="middle" font-size="12" fill="white" font-family="Arial">1.00</text>
<rect x="564.0" y="80.0" width="148.0" height="55.714285714285715" fill="rgb(33,84,143)" stroke="white"/>
<text x="638.0" y="111.85714285714286" text-anchor="middle" font-size="12" fill="white" font-family="Arial">1.00</text>
<rect x="712.0" y="80.0" width="148.0" height="55.714285714285715" fill="rgb(33,84,143)" stroke="white"/>
<text x="786.0" y="111.85714285714286" text-anchor="middle" font-size="12" fill="white" font-family="Arial">1.00</text>
<text x="105" y="167.57142857142858" text-anchor="end" font-size="12" font-family="Arial">4</text>
<rect x="120.0" y="135.71428571428572" width="148.0" height="55.714285714285715" fill="rgb(33,84,143)" stroke="white"/>
<text x="194.0" y="167.57142857142858" text-anchor="middle" font-size="12" fill="white" font-family="Arial">1.00</text>
<rect x="268.0" y="135.71428571428572" width="148.0" height="55.714285714285715" fill="rgb(33,84,143)" stroke="white"/>
<text x="342.0" y="167.57142857142858" text-anchor="middle" font-size="12" fill="white" font-family="Arial">1.00</text>
<rect x="416.0" y="135.71428571428572" width="148.0" height="55.714285714285715" fill="rgb(33,84,143)" stroke="white"/>
<text x="490.0" y="167.57142857142858" text-anchor="middle" font-size="12" fill="white" font-family="Arial">1.00</text>
<rect x="564.0" y="135.71428571428572" width="148.0" height="55.714285714285715" fill="rgb(232,240,248)" stroke="white"/>
<text x="638.0" y="167.57142857142858" text-anchor="middle" font-size="12" fill="black" font-family="Arial">0.00</text>
<rect x="712.0" y="135.71428571428572" width="148.0" height="55.714285714285715" fill="rgb(232,240,248)" stroke="white"/>
<text x="786.0" y="167.57142857142858" text-anchor="middle" font-size="12" fill="black" font-family="Arial">0.00</text>
<text x="105" y="223.2857142857143" text-anchor="end" font-size="12" font-family="Arial">5</text>
<rect x="120.0" y="191.42857142857144" width="148.0" height="55.714285714285715" fill="rgb(33,84,143)" stroke="white"/>
<text x="194.0" y="223.2857142857143" text-anchor="middle" font-size="12" fill="white" font-family="Arial">1.00</text>
<rect x="268.0" y="191.42857142857144" width="148.0" height="55.714285714285715" fill="rgb(33,84,143)" stroke="white"/>
<text x="342.0" y="223.2857142857143" text-anchor="middle" font-size="12" fill="white" font-family="Arial">1.00</text>
<rect x="416.0" y="191.42857142857144" width="148.0" height="55.714285714285715" fill="rgb(33,84,143)" stroke="white"/>
<text x="490.0" y="223.2857142857143" text-anchor="middle" font-size="12" fill="white" font-family="Arial">1.00</text>
<rect x="564.0" y="191.42857142857144" width="148.0" height="55.714285714285715" fill="rgb(99,136,178)" stroke="white"/>
<text x="638.0" y="223.2857142857143" text-anchor="middle" font-size="12" fill="white" font-family="Arial">0.67</text>
<rect x="712.0" y="191.42857142857144" width="148.0" height="55.714285714285715" fill="rgb(33,84,143)" stroke="white"/>
<text x="786.0" y="223.2857142857143" text-anchor="middle" font-size="12" fill="white" font-family="Arial">1.00</text>
<text x="105" y="279.0" text-anchor="end" font-size="12" font-family="Arial">6</text>
<rect x="120.0" y="247.14285714285714" width="148.0" height="55.714285714285715" fill="rgb(33,84,143)" stroke="white"/>
<text x="194.0" y="279.0" text-anchor="middle" font-size="12" fill="white" font-family="Arial">1.00</text>
<rect x="268.0" y="247.14285714285714" width="148.0" height="55.714285714285715" fill="rgb(33,84,143)" stroke="white"/>
<text x="342.0" y="279.0" text-anchor="middle" font-size="12" fill="white" font-family="Arial">1.00</text>
<rect x="416.0" y="247.14285714285714" width="148.0" height="55.714285714285715" fill="rgb(33,84,143)" stroke="white"/>
<text x="490.0" y="279.0" text-anchor="middle" font-size="12" fill="white" font-family="Arial">1.00</text>
<rect x="564.0" y="247.14285714285714" width="148.0" height="55.714285714285715" fill="rgb(33,84,143)" stroke="white"/>
<text x="638.0" y="279.0" text-anchor="middle" font-size="12" fill="white" font-family="Arial">1.00</text>
<rect x="712.0" y="247.14285714285714" width="148.0" height="55.714285714285715" fill="rgb(232,240,248)" stroke="white"/>
<text x="786.0" y="279.0" text-anchor="middle" font-size="12" fill="black" font-family="Arial">0.00</text>
<text x="105" y="334.7142857142857" text-anchor="end" font-size="12" font-family="Arial">7</text>
<rect x="120.0" y="302.8571428571429" width="148.0" height="55.714285714285715" fill="rgb(33,84,143)" stroke="white"/>
<text x="194.0" y="334.7142857142857" text-anchor="middle" font-size="12" fill="white" font-family="Arial">1.00</text>
<rect x="268.0" y="302.8571428571429" width="148.0" height="55.714285714285715" fill="rgb(33,84,143)" stroke="white"/>
<text x="342.0" y="334.7142857142857" text-anchor="middle" font-size="12" fill="white" font-family="Arial">1.00</text>
<rect x="416.0" y="302.8571428571429" width="148.0" height="55.714285714285715" fill="rgb(232,240,248)" stroke="white"/>
<text x="490.0" y="334.7142857142857" text-anchor="middle" font-size="12" fill="black" font-family="Arial">0.00</text>
<rect x="564.0" y="302.8571428571429" width="148.0" height="55.714285714285715" fill="rgb(165,188,213)" stroke="white"/>
<text x="638.0" y="334.7142857142857" text-anchor="middle" font-size="12" fill="black" font-family="Arial">0.33</text>
<rect x="712.0" y="302.8571428571429" width="148.0" height="55.714285714285715" fill="rgb(232,240,248)" stroke="white"/>
<text x="786.0" y="334.7142857142857" text-anchor="middle" font-size="12" fill="black" font-family="Arial">0.00</text>
<text x="105" y="390.4285714285714" text-anchor="end" font-size="12" font-family="Arial">8</text>
<rect x="120.0" y="358.57142857142856" width="148.0" height="55.714285714285715" fill="rgb(33,84,143)" stroke="white"/>
<text x="194.0" y="390.4285714285714" text-anchor="middle" font-size="12" fill="white" font-family="Arial">1.00</text>
<rect x="268.0" y="358.57142857142856" width="148.0" height="55.714285714285715" fill="rgb(165,188,213)" stroke="white"/>
<text x="342.0" y="390.4285714285714" text-anchor="middle" font-size="12" fill="black" font-family="Arial">0.33</text>
<rect x="416.0" y="358.57142857142856" width="148.0" height="55.714285714285715" fill="rgb(165,188,213)" stroke="white"/>
<text x="490.0" y="390.4285714285714" text-anchor="middle" font-size="12" fill="black" font-family="Arial">0.33</text>
<rect x="564.0" y="358.57142857142856" width="148.0" height="55.714285714285715" fill="rgb(99,136,178)" stroke="white"/>
<text x="638.0" y="390.4285714285714" text-anchor="middle" font-size="12" fill="white" font-family="Arial">0.67</text>
<rect x="712.0" y="358.57142857142856" width="148.0" height="55.714285714285715" fill="rgb(232,240,248)" stroke="white"/>
<text x="786.0" y="390.4285714285714" text-anchor="middle" font-size="12" fill="black" font-family="Arial">0.00</text>
<text x="105" y="446.1428571428571" text-anchor="end" font-size="12" font-family="Arial">9</text>
<rect x="120.0" y="414.2857142857143" width="148.0" height="55.714285714285715" fill="rgb(33,84,143)" stroke="white"/>
<text x="194.0" y="446.1428571428571" text-anchor="middle" font-size="12" fill="white" font-family="Arial">1.00</text>
<rect x="268.0" y="414.2857142857143" width="148.0" height="55.714285714285715" fill="rgb(33,84,143)" stroke="white"/>
<text x="342.0" y="446.1428571428571" text-anchor="middle" font-size="12" fill="white" font-family="Arial">1.00</text>
<rect x="416.0" y="414.2857142857143" width="148.0" height="55.714285714285715" fill="rgb(33,84,143)" stroke="white"/>
<text x="490.0" y="446.1428571428571" text-anchor="middle" font-size="12" fill="white" font-family="Arial">1.00</text>
<rect x="564.0" y="414.2857142857143" width="148.0" height="55.714285714285715" fill="rgb(232,240,248)" stroke="white"/>
<text x="638.0" y="446.1428571428571" text-anchor="middle" font-size="12" fill="black" font-family="Arial">0.00</text>
<rect x="712.0" y="414.2857142857143" width="148.0" height="55.714285714285715" fill="rgb(232,240,248)" stroke="white"/>
<text x="786.0" y="446.1428571428571" text-anchor="middle" font-size="12" fill="black" font-family="Arial">0.00</text>
<text x="194.0" y="492" text-anchor="middle" font-size="12" font-family="Arial">0</text>
<text x="342.0" y="492" text-anchor="middle" font-size="12" font-family="Arial">1</text>
<text x="490.0" y="492" text-anchor="middle" font-size="12" font-family="Arial">2</text>
<text x="638.0" y="492" text-anchor="middle" font-size="12" font-family="Arial">3</text>
<text x="786.0" y="492" text-anchor="middle" font-size="12" font-family="Arial">4</text>
<text x="490.0" y="535" text-anchor="middle" font-size="13" font-family="Arial">Stardepth</text>
<text x="55" y="275.0" transform="rotate(-90 55 275.0)" text-anchor="middle" font-size="13" font-family="Arial">#States</text>
</svg>