<svg xmlns="http://www.w3.org/2000/svg" width="640" height="400" viewBox="0 0 640 400"><rect width="100%" height="100%" fill="white"/><text x="320.0" y="24" text-anchor="middle" font-size="18" font-family="Arial">Solve Rate by States</text><line x1="60" y1="345" x2="620" y2="345" stroke="black"/><line x1="60" y1="40" x2="60" y2="345" stroke="black"/><text x="320.0" y="388" text-anchor="middle" font-size="13" font-family="Arial">#States</text><text x="18" y="200.0" text-anchor="middle" font-size="13" font-family="Arial" transform="rotate(-90 18 200.0)">Mean Solve Rate</text><line x1="60" y1="345.0" x2="620" y2="345.0" stroke="#dddddd"/><text x="52" y="349.0" text-anchor="end" font-size="11" font-family="Arial">0.0</text><line x1="60" y1="284.0" x2="620" y2="284.0" stroke="#dddddd"/><text x="52" y="288.0" text-anchor="end" font-size="11" font-family="Arial">0.2</text><line x1="60" y1="223.0" x2="620" y2="223.0" stroke="#dddddd"/><text x="52" y="227.0" text-anchor="end" font-size="11" font-family="Arial">0.4</text><line x1="60" y1="162.0" x2="620" y2="162.0" stroke="#dddddd"/><text x="52" y="166.0" text-anchor="end" font-size="11" font-family="Arial">0.6</text><line x1="60" y1="101.0" x2="620" y2="101.0" stroke="#dddddd"/><text x="52" y="105.0" text-anchor="end" font-size="11" font-family="Arial">0.8</text><line x1="60" y1="40.0" x2="620" y2="40.0" stroke="#dddddd"/><text x="52" y="44.0" text-anchor="end" font-size="11" font-family="Arial">1.0</text><rect x="76.0" y="40.0" width="48.0" height="305.0" fill="#2a6f97"/><text x="100.0" y="363" text-anchor="middle" font-size="12" font-family="Arial">3</text><text x="100.0" y="34.0" text-anchor="middle" font-size="11" font-family="Arial">1.00</text><rect x="156.0" y="101.0" width="48.0" height="244.0" fill="#2a6f97"/><text x="180.0" y="363" text-anchor="middle" font-size="12" font-family="Arial">4</text><text x="180.0" y="95.0" text-anchor="middle" font-size="11" font-family="Arial">0.80</text><rect x="236.0" y="40.0" width="48.0" height="305.0" fill="#2a6f97"/><text x="260.0" y="363" text-anchor="middle" font-size="12" font-family="Arial">5</text><text x="260.0" y="34.0" text-anchor="middle" font-size="11" font-family="Arial">1.00</text><rect x="316.0" y="60.3" width="48.0" height="284.7" fill="#2a6f97"/><text x="340.0" y="363" text-anchor="middle" font-size="12" font-family="Arial">6</text><text x="340.0" y="54.3" text-anchor="middle" font-size="11" font-family="Arial">0.93</text><rect x="396.0" y="182.3" width="48.0" height="162.7" fill="#2a6f97"/><text x="420.0" y="363" text-anchor="middle" font-size="12" font-family="Arial">7</text><text x="420.0" y="176.3" text-anchor="middle" font-size="11" font-family="Arial">0.53</text><rect x="476.0" y="80.7" width="48.0" height="264.3" fill="#2a6f97"/><text x="500.0" y="363" text-anchor="middle" font-size="12" font-family="Arial">8</text><text x="500.0" y="74.7" text-anchor="middle" font-size="11" font-family="Arial">0.87</text><rect x="556.0" y="162.0" width="48.0" height="183.0" fill="#2a6f97"/><text x="580.0" y="363" text-anchor="middle" font-size="12" font-family="Arial">9</text><text x="580.0" y="156.0" text-anchor="middle" font-size="11" font-family="Arial">0.60</text></svg>