<svg xmlns="http://www.w3.org/2000/svg" width="900" height="520">
<rect width="100%" height="100%" fill="white"/>
<text x="450.0" y="35" text-anchor="middle" font-size="22" font-family="Arial">Mean Solve Rate by Stardepth</text>
<line x1="80" y1="70" x2="80" y2="430" stroke="black"/>
<line x1="80" y1="430" x2="860" y2="430" stroke="black"/>
<line x1="75" y1="430.0" x2="80" y2="430.0" stroke="black"/>
<text x="70" y="434.0" text-anchor="end" font-size="12" font-family="Arial">0.00</text>
<line x1="75" y1="358.0" x2="80" y2="358.0" stroke="black"/>
<text x="70" y="362.0" text-anchor="end" font-size="12" font-family="Arial">0.20</text>
<line x1="80" y1="358.0" x2="860" y2="358.0" stroke="#dddddd" stroke-dasharray="3,3"/>
<line x1="75" y1="286.0" x2="80" y2="286.0" stroke="black"/>
<text x="70" y="290.0" text-anchor="end" font-size="12" font-family="Arial">0.40</text>
<line x1="80" y1="286.0" x2="860" y2="286.0" stroke="#dddddd" stroke-dasharray="3,3"/>
<line x1="75" y1="214.0" x2="80" y2="214.0" stroke="black"/>
<text x="70" y="218.0" text-anchor="end" font-size="12" font-family="Arial">0.60</text>
<line x1="80" y1="214.0" x2="860" y2="214.0" stroke="#dddddd" stroke-dasharray="3,3"/>
<line x1="75" y1="142.0" x2="80" y2="142.0" stroke="black"/>
<text x="70" y="146.0" text-anchor="end" font-size="12" font-family="Arial">0.80</text>
<line x1="80" y1="142.0" x2="860" y2="142.0" stroke="#dddddd" stroke-dasharray="3,3"/>
<line x1="75" y1="70.0" x2="80" y2="70.0" stroke="black"/>
<text x="70" y="74.0" text-anchor="end" font-size="12" font-family="Arial">1.00</text>
<line x1="80" y1="70.0" x2="860" y2="70.0" stroke="#dddddd" stroke-dasharray="3,3"/>
<rect x="92.48" y="70.0" width="141.024" height="360.0" fill="#4E79A7"/>
<text x="162.99200000000002" y="450" text-anchor="middle" font-size="12" font-family="Arial">0</text>
<text x="162.99200000000002" y="64.0" text-anchor="middle" font-size="11" font-family="Arial">1.00</text>
<rect x="245.98399999999998" y="104.28571428571428" width="141.024" height="325.7142857142857" fill="#4E79A7"/>
<text x="316.496" y="450" text-anchor="middle" font-size="12" font-family="Arial">1</text>
<text x="316.496" y="98.28571428571428" text-anchor="middle" font-size="11" font-family="Arial">0.90</text>
<rect x="399.488" y="155.71428571428572" width="141.024" height="274.2857142857143" fill="#4E79A7"/>
<text x="470.0" y="450" text-anchor="middle" font-size="12" font-family="Arial">2</text>
<text x="470.0" y="149.71428571428572" text-anchor="middle" font-size="11" font-family="Arial">0.76</text>
<rect x="552.992" y="241.42857142857142" width="141.024" height="188.57142857142858" fill="#4E79A7"/>
<text x="623.5039999999999" y="450" text-anchor="middle" font-size="12" font-family="Arial">3</text>
<text x="623.5039999999999" y="235.42857142857142" text-anchor="middle" font-size="11" font-family="Arial">0.52</text>
<rect x="706.496" y="327.14285714285717" width="141.024" height="102.85714285714285" fill="#4E79A7"/>
<text x="777.008" y="450" text-anchor="middle" font-size="12" font-family="Arial">4</text>
<text x="777.008" y="321.14285714285717" text-anchor="middle" font-size="11" font-family="Arial">0.29</text>
<text x="25" y="250.0" transform="rotate(-90 25 250.0)" text-anchor="middle" font-size="13" font-family="Arial">Mean Solve Rate</text>
<text x="470.0" y="490" text-anchor="middle" font-size="13" font-family="Arial">Group</text>
</svg>