<svg xmlns="http://www.w3.org/2000/svg" width="680" height="430" viewBox="0 0 680 430"><rect width="100%" height="100%" fill="white"/><text x="340.0" y="24" text-anchor="middle" font-size="18" font-family="Arial">Solve Rate Heatmap: States x Stardepth</text><text x="62" y="68.6" text-anchor="end" font-size="12" font-family="Arial">3</text><rect x="70.0" y="40.0" width="118.0" height="49.3" fill="#0369a1" stroke="white"/><text x="129.0" y="68.6" text-anchor="middle" font-size="12" font-family="Arial">1.00</text><rect x="188.0" y="40.0" width="118.0" height="49.3" fill="#0369a1" stroke="white"/><text x="247.0" y="68.6" text-anchor="middle" font-size="12" font-family="Arial">1.00</text><rect x="306.0" y="40.0" width="118.0" height="49.3" fill="#0369a1" stroke="white"/><text x="365.0" y="68.6" text-anchor="middle" font-size="12" font-family="Arial">1.00</text><rect x="424.0" y="40.0" width="118.0" height="49.3" fill="#0369a1" stroke="white"/><text x="483.0" y="68.6" text-anchor="middle" font-size="12" font-family="Arial">1.00</text><rect x="542.0" y="40.0" width="118.0" height="49.3" fill="#0369a1" stroke="white"/><text x="601.0" y="68.6" text-anchor="middle" font-size="12" font-family="Arial">1.00</text><text x="62" y="117.9" text-anchor="end" font-size="12" font-family="Arial">4</text><rect x="70.0" y="89.3" width="118.0" height="49.3" fill="#0369a1" stroke="white"/><text x="129.0" y="117.9" text-anchor="middle" font-size="12" font-family="Arial">1.00</text><rect x="188.0" y="89.3" width="118.0" height="49.3" fill="#0369a1" stroke="white"/><text x="247.0" y="117.9" text-anchor="middle" font-size="12" font-family="Arial">1.00</text><rect x="306.0" y="89.3" width="118.0" height="49.3" fill="#0369a1" stroke="white"/><text x="365.0" y="117.9" text-anchor="middle" font-size="12" font-family="Arial">1.00</text><rect x="424.0" y="89.3" width="118.0" height="49.3" fill="#0369a1" stroke="white"/><text x="483.0" y="117.9" text-anchor="middle" font-size="12" font-family="Arial">1.00</text><rect x="542.0" y="89.3" width="118.0" height="49.3" fill="#eff6ff" stroke="white"/><text x="601.0" y="117.9" text-anchor="middle" font-size="12" font-family="Arial">0.00</text><text x="62" y="167.2" text-anchor="end" font-size="12" font-family="Arial">5</text><rect x="70.0" y="138.6" width="118.0" height="49.3" fill="#0369a1" stroke="white"/><text x="129.0" y="167.2" text-anchor="middle" font-size="12" font-family="Arial">1.00</text><rect x="188.0" y="138.6" width="118.0" height="49.3" fill="#0369a1" stroke="white"/><text x="247.0" y="167.2" text-anchor="middle" font-size="12" font-family="Arial">1.00</text><rect x="306.0" y="138.6" width="118.0" height="49.3" fill="#0369a1" stroke="white"/><text x="365.0" y="167.2" text-anchor="middle" font-size="12" font-family="Arial">1.00</text><rect x="424.0" y="138.6" width="118.0" height="49.3" fill="#0369a1" stroke="white"/><text x="483.0" y="167.2" text-anchor="middle" font-size="12" font-family="Arial">1.00</text><rect x="542.0" y="138.6" width="118.0" height="49.3" fill="#0369a1" stroke="white"/><text x="601.0" y="167.2" text-anchor="middle" font-size="12" font-family="Arial">1.00</text><text x="62" y="216.5" text-anchor="end" font-size="12" font-family="Arial">6</text><rect x="70.0" y="187.9" width="118.0" height="49.3" fill="#0369a1" stroke="white"/><text x="129.0" y="216.5" text-anchor="middle" font-size="12" font-family="Arial">1.00</text><rect x="188.0" y="187.9" width="118.0" height="49.3" fill="#0369a1" stroke="white"/><text x="247.0" y="216.5" text-anchor="middle" font-size="12" font-family="Arial">1.00</text><rect x="306.0" y="187.9" width="118.0" height="49.3" fill="#0369a1" stroke="white"/><text x="365.0" y="216.5" text-anchor="middle" font-size="12" font-family="Arial">1.00</text><rect x="424.0" y="187.9" width="118.0" height="49.3" fill="#0369a1" stroke="white"/><text x="483.0" y="216.5" text-anchor="middle" font-size="12" font-family="Arial">1.00</text><rect x="542.0" y="187.9" width="118.0" height="49.3" fill="#5298c0" stroke="white"/><text x="601.0" y="216.5" text-anchor="middle" font-size="12" font-family="Arial">0.67</text><text x="62" y="265.8" text-anchor="end" font-size="12" font-family="Arial">7</text><rect x="70.0" y="237.1" width="118.0" height="49.3" fill="#0369a1" stroke="white"/><text x="129.0" y="265.8" text-anchor="middle" font-size="12" font-family="Arial">1.00</text><rect x="188.0" y="237.1" width="118.0" height="49.3" fill="#0369a1" stroke="white"/><text x="247.0" y="265.8" text-anchor="middle" font-size="12" font-family="Arial">1.00</text><rect x="306.0" y="237.1" width="118.0" height="49.3" fill="#eff6ff" stroke="white"/><text x="365.0" y="265.8" text-anchor="middle" font-size="12" font-family="Arial">0.00</text><rect x="424.0" y="237.1" width="118.0" height="49.3" fill="#a0c7e0" stroke="white"/><text x="483.0" y="265.8" text-anchor="middle" font-size="12" font-family="Arial">0.33</text><rect x="542.0" y="237.1" width="118.0" height="49.3" fill="#a0c7e0" stroke="white"/><text x="601.0" y="265.8" text-anchor="middle" font-size="12" font-family="Arial">0.33</text><text x="62" y="315.1" text-anchor="end" font-size="12" font-family="Arial">8</text><rect x="70.0" y="286.4" width="118.0" height="49.3" fill="#0369a1" stroke="white"/><text x="129.0" y="315.1" text-anchor="middle" font-size="12" font-family="Arial">1.00</text><rect x="188.0" y="286.4" width="118.0" height="49.3" fill="#0369a1" stroke="white"/><text x="247.0" y="315.1" text-anchor="middle" font-size="12" font-family="Arial">1.00</text><rect x="306.0" y="286.4" width="118.0" height="49.3" fill="#0369a1" stroke="white"/><text x="365.0" y="315.1" text-anchor="middle" font-size="12" font-family="Arial">1.00</text><rect x="424.0" y="286.4" width="118.0" height="49.3" fill="#0369a1" stroke="white"/><text x="483.0" y="315.1" text-anchor="middle" font-size="12" font-family="Arial">1.00</text><rect x="542.0" y="286.4" width="118.0" height="49.3" fill="#a0c7e0" stroke="white"/><text x="601.0" y="315.1" text-anchor="middle" font-size="12" font-family="Arial">0.33</text><text x="62" y="364.4" text-anchor="end" font-size="12" font-family="Arial">9</text><rect x="70.0" y="335.7" width="118.0" height="49.3" fill="#0369a1" stroke="white"/><text x="129.0" y="364.4" text-anchor="middle" font-size="12" font-family="Arial">1.00</text><rect x="188.0" y="335.7" width="118.0" height="49.3" fill="#0369a1" stroke="white"/><text x="247.0" y="364.4" text-anchor="middle" font-size="12" font-family="Arial">1.00</text><rect x="306.0" y="335.7" width="118.0" height="49.3" fill="#0369a1" stroke="white"/><text x="365.0" y="364.4" text-anchor="middle" font-size="12" font-family="Arial">1.00</text><rect x="424.0" y="335.7" width="118.0" height="49.3" fill="#eff6ff" stroke="white"/><text x="483.0" y="364.4" text-anchor="middle" font-size="12" font-family="Arial">0.00</text><rect x="542.0" y="335.7" width="118.0" height="49.3" fill="#eff6ff" stroke="white"/><text x="601.0" y="364.4" text-anchor="middle" font-size="12" font-family="Arial">0.00</text><text x="129.0" y="403" text-anchor="middle" font-size="12" font-family="Arial">0</text><text x="247.0" y="403" text-anchor="middle" font-size="12" font-family="Arial">1</text><text x="365.0" y="403" text-anchor="middle" font-size="12" font-family="Arial">2</text><text x="483.0" y="403" text-anchor="middle" font-size="12" font-family="Arial">3</text><text x="601.0" y="403" text-anchor="middle" font-size="12" font-family="Arial">4</text><text x="340.0" y="420" text-anchor="middle" font-size="13" font-family="Arial">StarDepth</text><text x="18" y="215.0" text-anchor="middle" font-size="13" font-family="Arial" transform="rotate(-90 18 215.0)">#States</text></svg>